<svg xmlns="http://www.w3.org/2000/svg" width="20" height="20" viewBox="0 0 20 20">
  <path id="social-instagram_-_simple-line-icons" data-name="social-instagram - simple-line-icons" d="M10,20c-1.676,0-3.062-.02-4.122-.059a7.612,7.612,0,0,1-2.426-.472,5,5,0,0,1-2.919-2.92,7.613,7.613,0,0,1-.473-2.426C.02,13.062,0,11.675,0,10S.02,6.937.059,5.878A7.614,7.614,0,0,1,.533,3.451,5,5,0,0,1,3.451.533,7.614,7.614,0,0,1,5.878.059C6.937.02,8.324,0,10,0s3.062.02,4.122.059a7.613,7.613,0,0,1,2.426.473,5,5,0,0,1,2.92,2.919,7.612,7.612,0,0,1,.472,2.426C19.98,6.937,20,8.324,20,10s-.02,3.062-.059,4.122a7.61,7.61,0,0,1-.472,2.426,5.006,5.006,0,0,1-2.92,2.92,7.61,7.61,0,0,1-2.426.472C13.062,19.98,11.675,20,10,20ZM10,1.3c-1.74,0-3.18.02-4.28.059a6.338,6.338,0,0,0-1.972.375A3.614,3.614,0,0,0,1.736,3.748,6.339,6.339,0,0,0,1.361,5.72C1.321,6.82,1.3,8.26,1.3,10s.02,3.18.059,4.28a6.337,6.337,0,0,0,.375,1.972,3.618,3.618,0,0,0,2.012,2.012,6.364,6.364,0,0,0,1.972.374c1.1.039,2.54.059,4.28.059s3.18-.02,4.28-.059a6.363,6.363,0,0,0,1.972-.374,3.623,3.623,0,0,0,2.012-2.012,6.363,6.363,0,0,0,.374-1.972c.039-1.1.059-2.54.059-4.28s-.02-3.18-.059-4.28a6.364,6.364,0,0,0-.374-1.972,3.618,3.618,0,0,0-2.012-2.012,6.337,6.337,0,0,0-1.972-.375C13.18,1.321,11.74,1.3,10,1.3Zm0,13.827A5.118,5.118,0,0,1,4.872,10,5.119,5.119,0,0,1,10,4.872,5.118,5.118,0,0,1,15.128,10,5.116,5.116,0,0,1,10,15.128ZM10,6a4.007,4.007,0,0,0-4,4,3.974,3.974,0,0,0,4,4,4.007,4.007,0,0,0,4-4,4.007,4.007,0,0,0-4-4Zm5.325-.138a1.18,1.18,0,0,1-1.184-1.184,1.2,1.2,0,0,1,.346-.868,1.156,1.156,0,0,1,1.687.02,1.157,1.157,0,0,1,.02,1.686A1.2,1.2,0,0,1,15.325,5.858Z" transform="translate(0 0)" fill="#fff"/>
</svg>
