<svg xmlns="http://www.w3.org/2000/svg" width="23.457" height="17.543" viewBox="0 0 23.457 17.543">
  <path id="twitter_-_FontAwesome" data-name="twitter - FontAwesome" d="M20,1.929a8.589,8.589,0,0,1-2.056,2.119q.013.178.013.533a11.644,11.644,0,0,1-.482,3.293,11.9,11.9,0,0,1-1.466,3.154A12.4,12.4,0,0,1,13.668,13.7a10.425,10.425,0,0,1-3.274,1.853,11.983,11.983,0,0,1-4.1.692A11.383,11.383,0,0,1,0,14.4a8.773,8.773,0,0,0,.99.051A8.025,8.025,0,0,0,6.079,12.7,4.108,4.108,0,0,1,2.246,9.86a5.193,5.193,0,0,0,.774.063A4.241,4.241,0,0,0,4.1,9.784,4.033,4.033,0,0,1,1.745,8.369,3.96,3.96,0,0,1,.812,5.761V5.711a4.066,4.066,0,0,0,1.853.52A4.094,4.094,0,0,1,1.332,4.772,3.994,3.994,0,0,1,.838,2.817,4.016,4.016,0,0,1,1.4.749,11.62,11.62,0,0,0,5.133,3.775,11.421,11.421,0,0,0,9.848,5.038a4.553,4.553,0,0,1-.1-.939,3.95,3.95,0,0,1,1.2-2.9,4.109,4.109,0,0,1,5.895.1,8.037,8.037,0,0,0,2.6-.99,3.98,3.98,0,0,1-1.8,2.259A8.167,8.167,0,0,0,20,1.929Z" transform="translate(2.071 0.8)" fill="none" stroke="#fff" stroke-miterlimit="10" stroke-width="1"/>
</svg>
