<svg xmlns="http://www.w3.org/2000/svg" xmlns:xlink="http://www.w3.org/1999/xlink" width="60" height="47.804" viewBox="0 0 60 47.804">
  <defs>
    <clipPath id="clip-path">
      <rect width="60" height="47.804" fill="none"/>
    </clipPath>
  </defs>
  <g id="logo_black" data-name="logo black" clip-path="url(#clip-path)">
    <g id="logo" transform="translate(0 0)">
      <path id="Shape" d="M55.78,47.8h-.031L4.477,47.746l-.038,0a.468.468,0,0,1-.433-.292L.043,38.91A.457.457,0,0,1,.056,38.5L19.021.259A.459.459,0,0,1,19.436,0h.028l21.48,0a.464.464,0,0,1,.424.275l18.581,38.75a.472.472,0,0,1,.047.146v.017a.431.431,0,0,1,0,.059v.02a.469.469,0,0,1-.041.162l-3.757,8.1A.466.466,0,0,1,55.78,47.8ZM36.749,8.666,23.338,8.78,5.177,46.821l50.307.056,3.326-7.171L15.1,39.767a.465.465,0,0,1-.464-.464.458.458,0,0,1,.046-.2L25.764,16.063a.468.468,0,0,1,.419-.263H26.2l6.9-.118,3.645-7.016ZM19.423,1.544h0L.983,38.723l3.464,7.469L22.531,8.314l-3.108-6.77Zm-.062,29.968-3.525,7.325L58.8,38.778,40.652.932l-20.49,0,3.177,6.925,14.175-.121A.469.469,0,0,1,37.935,8L49.023,31.032a.464.464,0,0,1-.216.62.456.456,0,0,1-.2.046h-.031l-8.1-.034h-.017l-20.873-.089A.469.469,0,0,1,19.361,31.513ZM37.5,9.234l-3.594,6.919,6.86,14.583,7.1.03Zm-4.4,7.378-6.621.113-6.7,13.923,19.963.085Z" fill="#1e252c" stroke="#1e252c" stroke-miterlimit="10" stroke-width="0.5"/>
    </g>
  </g>
</svg>
